<svg width="31" height="30" viewBox="0 0 31 30" fill="none" xmlns="http://www.w3.org/2000/svg">
<path d="M16.3856 21.9295L15.5335 22.7429C15.1727 23.0873 14.5892 23.0873 14.2323 22.7429L6.7706 15.6241C6.4098 15.2797 6.4098 14.7228 6.7706 14.382L14.2323 7.25952C14.5931 6.91512 15.1765 6.91512 15.5335 7.25952L16.3856 8.07289C16.7502 8.42096 16.7425 8.98886 16.3702 9.32959L11.7451 13.5357H22.7764C23.2869 13.5357 23.6976 13.9277 23.6976 14.415V15.5874C23.6976 16.0747 23.2869 16.4668 22.7764 16.4668H11.7451L16.3702 20.6728C16.7464 21.0136 16.754 21.5815 16.3856 21.9295Z" fill="#353535"/>
</svg>
