<?xml version="1.0" encoding="UTF-8" standalone="no"?>
<svg
   xmlns:dc="http://purl.org/dc/elements/1.1/"
   xmlns:cc="http://creativecommons.org/ns#"
   xmlns:rdf="http://www.w3.org/1999/02/22-rdf-syntax-ns#"
   xmlns:svg="http://www.w3.org/2000/svg"
   xmlns="http://www.w3.org/2000/svg"
   xmlns:sodipodi="http://sodipodi.sourceforge.net/DTD/sodipodi-0.dtd"
   xmlns:inkscape="http://www.inkscape.org/namespaces/inkscape"
   width="23"
   height="21"
   viewBox="0 0 23 21"
   fill="none"
   version="1.1"
   id="svg4"
   sodipodi:docname="like.svg"
   inkscape:version="0.92.4 (5da689c313, 2019-01-14)">
  <metadata
     id="metadata10">
    <rdf:RDF>
      <cc:Work
         rdf:about="">
        <dc:format>image/svg+xml</dc:format>
        <dc:type
           rdf:resource="http://purl.org/dc/dcmitype/StillImage" />
      </cc:Work>
    </rdf:RDF>
  </metadata>
  <defs
     id="defs8" />
  <sodipodi:namedview
     pagecolor="#ffffff"
     bordercolor="#666666"
     borderopacity="1"
     objecttolerance="10"
     gridtolerance="10"
     guidetolerance="10"
     inkscape:pageopacity="0"
     inkscape:pageshadow="2"
     inkscape:window-width="1920"
     inkscape:window-height="1017"
     id="namedview6"
     showgrid="false"
     inkscape:zoom="44.952381"
     inkscape:cx="15.463672"
     inkscape:cy="14.984809"
     inkscape:window-x="-8"
     inkscape:window-y="-8"
     inkscape:window-maximized="1"
     inkscape:current-layer="svg4" />
  <path
     d="m 12.7206,2.40588 -3e-4,2.4e-4 -0.8464,0.95156 -0.3736,0.41996 -0.3736,-0.41996 -0.8465,-0.95156 -5e-4,-6.1e-4 C 8.28247,0.152951 5.09737,-0.169283 2.9764,1.80238 0.482212,4.12487 0.344816,8.32394 2.58455,10.8499 l 8.31415,9.3653 10e-5,10e-5 c 0.3382,0.3806 0.8605,0.3806 1.1987,0 0,0 0,-10e-5 10e-5,-10e-5 l 8.3143,-9.3655 10e-5,-10e-5 C 22.6556,8.32372 22.5183,4.12498 20.0243,1.8025 M 12.7206,2.40588 C 13.732159,1.2672331 15.044861,0.62182559 16.369712,0.51633592 17.66651,0.41307989 18.974947,0.82711933 20.024,1.80223"
     id="path2"
     inkscape:connector-curvature="0"
     style="stroke:#101010"
     sodipodi:nodetypes="cccccccccccccccccsc" />
</svg>
